<?xml version="1.0" encoding="utf-8"?>
<!-- Generator: Adobe Illustrator 25.2.1, SVG Export Plug-In . SVG Version: 6.00 Build 0)  -->
<svg version="1.1" id="Camada_1" xmlns="http://www.w3.org/2000/svg" xmlns:xlink="http://www.w3.org/1999/xlink" x="0px" y="0px"
	 viewBox="0 0 782.2 354.7" style="enable-background:new 0 0 782.2 354.7;" xml:space="preserve">
<style type="text/css">
	.st0{fill-rule:evenodd;clip-rule:evenodd;fill:#2E2E2F;}
	.st1{fill-rule:evenodd;clip-rule:evenodd;fill:#F9BA15;}
</style>
<path class="st0" d="M147.2,201.9H61.5l-18.1,49.9H-1.3L80.2,39.4h49.6l82.5,212.4h-47.1L147.2,201.9L147.2,201.9z M134.7,166.7
	L104,83.5l-30.3,83.3H134.7z M134.7,166.7"/>
<path class="st0" d="M778.4,175.2c0-43.2-28.8-75.7-75.7-75.7c-41.3,0-74.8,25.1-80,67.2c-7.4-14-20.9-23.5-36.5-27.5
	c17.2-8.8,27.9-23.5,27.9-45.1c0-30.9-22.1-50.3-59.2-54c-0.1,0.7-0.3,1.3-0.6,1.9L542,76c16.8,1.2,29.2,8.2,29.2,23.8
	c0,17.4-15.1,25.7-32.8,25.7h-14.2l-12.3,34.3h33.4c23.3,0,39.3,8.9,39.3,27.8c0,18.9-16.2,27.6-36.7,27.6h-42.5v-37.4l-24.3,67.7
	c-0.9,2.3-2.1,4.4-3.6,6.4h76.6c37.4,0,64.9-18.7,72.3-45.7c11.3,31.9,42.5,48.8,78.4,48.8c24,0,46.9-7.6,62.9-20l-18.6-24.8
	c-3,2.1-6.2,4-9.5,5.6c-3.3,1.6-6.7,3-10.3,4.1c-3.5,1.1-7.1,1.9-10.8,2.5c-3.6,0.6-7.3,0.8-11,0.9c-25.1,0-42-13.2-44.5-34.4h114.3
	C778.1,184.2,778.4,179.7,778.4,175.2L778.4,175.2z M663.9,162.9c2.8-18.9,17.5-31.2,38.4-31.2c22,0,34.1,13.8,36.1,31.2H663.9z
	 M663.9,162.9"/>
<path class="st0" d="M363.6,225.2c-0.8-1.3-1.5-2.6-2-4.1c-0.5-1.4-0.8-2.9-1-4.4c-0.2-1.5-0.1-3,0.1-4.6c0.2-1.5,0.6-3,1.1-4.4
	l17.1-42.2l-2.4-0.1c-0.4,0-0.9-0.1-1.3-0.1c-0.4-0.1-0.8-0.2-1.3-0.3c-0.4-0.1-0.8-0.3-1.2-0.4c-0.4-0.2-0.8-0.4-1.2-0.6
	c-0.4-0.2-0.7-0.5-1.1-0.7c-0.3-0.3-0.7-0.5-1-0.8c-0.3-0.3-0.6-0.6-0.9-1c-0.3-0.3-0.5-0.7-0.8-1.1c-0.2-0.4-0.4-0.7-0.6-1.1
	c-0.2-0.4-0.3-0.8-0.5-1.2c-0.1-0.4-0.2-0.8-0.3-1.3c-0.1-0.4-0.1-0.9-0.2-1.3c0-0.4,0-0.9,0-1.3c0-0.4,0.1-0.9,0.1-1.3
	c0.1-0.4,0.2-0.8,0.3-1.3c0.1-0.4,0.3-0.8,0.4-1.2l5.5-12.8h-61v33.6h53.3c-1.8,29.2-27.5,46.3-57.2,46.3c-42.2,0-67.1-33.4-67.1-71
	c0-41,29.2-72.9,72.4-72.9c4.9,0,9.8,0.4,14.6,1.2c4.8,0.8,9.6,1.9,14.2,3.4c4.7,1.5,9.2,3.3,13.6,5.5c4.4,2.2,8.6,4.7,12.6,7.5
	l18.9-28.8C366.1,45.6,337,36.3,309,36.3c-63.2,0-112.4,46.9-112.4,110.6c0,57.8,40.5,107.8,111.2,107.8c26.7,0,49.3-7.3,66.4-21.8
	c-2.2-0.6-4.2-1.5-6-2.8C366.3,228.7,364.8,227.1,363.6,225.2z M363.6,225.2"/>
<path class="st1" d="M483.3,56.6c-0.1-0.4-0.1-0.8-0.3-1.3c-0.1-0.4-0.3-0.8-0.4-1.2c-0.2-0.4-0.4-0.8-0.6-1.2
	c-0.2-0.4-0.5-0.8-0.8-1.1c-0.3-0.4-0.6-0.7-0.9-1c-0.3-0.3-0.7-0.6-1-0.9c-0.4-0.3-0.7-0.6-1.2-0.8c-0.4-0.2-0.8-0.5-1.3-0.7
	c-0.4-0.2-0.9-0.4-1.3-0.5c-0.5-0.2-0.9-0.3-1.4-0.4c-0.5-0.1-1-0.2-1.4-0.2c-0.5-0.1-1-0.1-1.5-0.1l-23.7-0.4
	c-1.3,0-2.5,0.1-3.7,0.4c-1.2,0.3-2.3,0.7-3.4,1.3c-1.1,0.6-2,1.3-2.8,2.2c-0.8,0.8-1.4,1.8-1.9,2.8l-74.3,157.4
	c-0.2,0.4-0.3,0.8-0.5,1.2c-0.1,0.4-0.2,0.8-0.3,1.3c-0.1,0.4-0.1,0.9-0.1,1.3c0,0.4,0,0.9,0.1,1.3c0,0.4,0.1,0.9,0.2,1.3
	c0.1,0.4,0.3,0.8,0.4,1.3c0.2,0.4,0.4,0.8,0.6,1.2c0.2,0.4,0.5,0.8,0.8,1.1c0.3,0.4,0.6,0.7,0.9,1c0.3,0.3,0.7,0.6,1,0.9
	c0.4,0.3,0.8,0.6,1.2,0.8c0.4,0.3,0.8,0.5,1.3,0.7c0.4,0.2,0.9,0.4,1.4,0.6c0.5,0.2,0.9,0.3,1.4,0.4c0.5,0.1,1,0.2,1.5,0.3
	c0.5,0.1,1,0.1,1.5,0.1l28.2,0.4c1.3,0,2.5-0.1,3.7-0.4c1.2-0.3,2.4-0.8,3.4-1.4c1.1-0.6,2-1.3,2.8-2.2c0.8-0.9,1.4-1.8,1.9-2.8
	l69.9-157.5c0.2-0.4,0.3-0.8,0.4-1.2c0.1-0.4,0.2-0.8,0.3-1.3c0.1-0.4,0.1-0.9,0.1-1.3C483.4,57.4,483.4,57,483.3,56.6z"/>
<path class="st0" d="M79.3,317c0,4.8-1.7,8.6-5.2,11.3c-3.5,2.7-8.2,4-14.2,4c-6.5,0-11.5-0.8-15-2.5v-6.1c2.2,0.9,4.7,1.7,7.3,2.2
	c2.6,0.5,5.3,0.8,7.9,0.8c4.2,0,7.4-0.8,9.6-2.4c2.1-1.6,3.2-3.8,3.2-6.7c0-1.9-0.4-3.4-1.1-4.6c-0.8-1.2-2-2.3-3.8-3.4
	c-1.8-1-4.5-2.2-8.1-3.5c-5.1-1.8-8.7-4-10.9-6.5c-2.2-2.5-3.3-5.8-3.3-9.8c0-4.2,1.6-7.6,4.8-10c3.2-2.5,7.4-3.7,12.6-3.7
	c5.4,0,10.4,1,15,3l-2,5.5c-4.5-1.9-8.9-2.8-13.2-2.8c-3.4,0-6,0.7-7.9,2.2c-1.9,1.4-2.8,3.4-2.8,6c0,1.9,0.3,3.4,1,4.7
	c0.7,1.2,1.9,2.3,3.5,3.3c1.7,1,4.2,2.1,7.6,3.3c5.7,2,9.7,4.2,11.8,6.6C78.3,310.2,79.3,313.3,79.3,317z M79.3,317"/>
<path class="st0" d="M177.8,304.1c0,8.8-2.2,15.6-6.6,20.6c-4.4,5-10.6,7.5-18.5,7.5c-8.1,0-14.3-2.5-18.6-7.4
	c-4.4-4.9-6.6-11.9-6.6-20.9c0-8.9,2.2-15.8,6.6-20.7c4.4-4.9,10.6-7.4,18.7-7.4c7.9,0,14,2.5,18.4,7.5
	C175.5,288.5,177.8,295.4,177.8,304.1L177.8,304.1z M134.2,304.1c0,7.4,1.6,13,4.7,16.8c3.2,3.8,7.7,5.7,13.8,5.7
	c6.1,0,10.6-1.9,13.7-5.7c3.1-3.8,4.6-9.4,4.6-16.9c0-7.4-1.5-12.9-4.6-16.7c-3.1-3.8-7.6-5.7-13.7-5.7c-6.1,0-10.7,1.9-13.8,5.8
	C135.8,291.3,134.2,296.8,134.2,304.1z M134.2,304.1"/>
<path class="st0" d="M229.7,331.6v-54.7h6.4v48.9h24.1v5.8H229.7z M229.7,331.6"/>
<path class="st0" d="M350.5,276.9v35.4c0,6.2-1.9,11.1-5.7,14.7c-3.8,3.6-8.9,5.3-15.5,5.3c-6.6,0-11.7-1.8-15.3-5.4
	c-3.6-3.6-5.4-8.5-5.4-14.8v-35.2h6.4v35.7c0,4.6,1.2,8.1,3.7,10.5c2.5,2.4,6.2,3.7,11,3.7c4.6,0,8.2-1.2,10.7-3.7
	c2.5-2.5,3.7-6,3.7-10.6v-35.6H350.5z M350.5,276.9"/>
<path class="st0" d="M428.2,281.8c-6,0-10.8,2-14.2,6c-3.5,4-5.2,9.5-5.2,16.4c0,7.1,1.7,12.7,5,16.6c3.4,3.9,8.1,5.9,14.3,5.9
	c3.8,0,8.2-0.7,13-2.1v5.6c-3.8,1.4-8.5,2.1-14,2.1c-8.1,0-14.3-2.4-18.6-7.3c-4.4-4.9-6.6-11.8-6.6-20.8c0-5.6,1.1-10.6,3.2-14.8
	c2.1-4.2,5.2-7.5,9.1-9.8c4-2.3,8.7-3.4,14-3.4c5.7,0,10.7,1,15,3.1l-2.7,5.5C436.4,282.8,432.3,281.8,428.2,281.8L428.2,281.8z
	 M432.5,342.4c0-3.4-2.2-5.5-6.7-6.5l2-4.3h-4.1l-3.3,6.7c2.7,0.4,4.6,1,5.5,1.6c1,0.7,1.5,1.5,1.5,2.6c0,1.4-0.5,2.3-1.5,2.8
	c-1,0.5-2.5,0.8-4.5,0.8c-1.5,0-2.8-0.1-3.9-0.3v4c1.1,0.2,2.3,0.3,3.6,0.3c3.7,0,6.6-0.7,8.5-2
	C431.6,346.6,432.5,344.8,432.5,342.4z M432.5,342.4"/>
<path class="st0" d="M540.3,304.1c0,8.8-2.2,15.6-6.6,20.6c-4.4,5-10.6,7.5-18.5,7.5c-8.1,0-14.3-2.5-18.6-7.4
	c-4.4-4.9-6.6-11.9-6.6-20.9c0-8.9,2.2-15.8,6.6-20.7c4.4-4.9,10.6-7.4,18.7-7.4c7.9,0,14,2.5,18.4,7.5
	C538.1,288.5,540.3,295.4,540.3,304.1L540.3,304.1z M496.7,304.1c0,7.4,1.6,13,4.7,16.8c3.2,3.8,7.7,5.7,13.8,5.7
	c6.1,0,10.6-1.9,13.7-5.7c3.1-3.8,4.6-9.4,4.6-16.9c0-7.4-1.5-12.9-4.6-16.7c-3.1-3.8-7.6-5.7-13.7-5.7c-6.1,0-10.7,1.9-13.8,5.8
	C498.3,291.3,496.7,296.8,496.7,304.1L496.7,304.1z M520.8,272.1c-1.1,0-2.1-0.2-3.1-0.7c-1-0.5-2-1-3-1.5c-1-0.6-1.9-1.1-2.8-1.5
	c-0.9-0.5-1.8-0.7-2.6-0.7c-1.2,0-2.2,0.4-2.8,1.1c-0.6,0.7-1.1,1.9-1.5,3.4h-3.7c0.3-3,1.2-5.4,2.6-7.1c1.4-1.7,3.3-2.6,5.6-2.6
	c1.1,0,2.3,0.2,3.3,0.7c1.1,0.5,2.1,1,3.1,1.5c1,0.6,1.9,1.1,2.8,1.5c0.9,0.5,1.8,0.7,2.5,0.7c1.2,0,2.1-0.4,2.7-1.1
	c0.6-0.7,1.1-1.9,1.5-3.4h3.7c-0.3,3-1.2,5.4-2.6,7.1C525,271.2,523.1,272.1,520.8,272.1z M520.8,272.1"/>
<path class="st0" d="M622.7,331.6h-30.5v-54.7h30.5v5.7h-24.1v17.6h22.7v5.6h-22.7v20.1h24.1V331.6z M622.7,331.6"/>
<path class="st0" d="M705.4,317c0,4.8-1.7,8.6-5.2,11.3c-3.5,2.7-8.2,4-14.2,4c-6.5,0-11.5-0.8-15-2.5v-6.1c2.2,0.9,4.7,1.7,7.3,2.2
	c2.6,0.5,5.3,0.8,7.9,0.8c4.2,0,7.4-0.8,9.6-2.4c2.1-1.6,3.2-3.8,3.2-6.7c0-1.9-0.4-3.4-1.1-4.6c-0.8-1.2-2-2.3-3.8-3.4
	c-1.8-1-4.5-2.2-8.1-3.5c-5.1-1.8-8.7-4-10.9-6.5c-2.2-2.5-3.3-5.8-3.3-9.8c0-4.2,1.6-7.6,4.8-10c3.2-2.5,7.4-3.7,12.6-3.7
	c5.4,0,10.4,1,15,3l-2,5.5c-4.5-1.9-8.9-2.8-13.2-2.8c-3.4,0-6,0.7-7.9,2.2c-1.9,1.4-2.8,3.4-2.8,6c0,1.9,0.3,3.4,1,4.7
	c0.7,1.2,1.9,2.3,3.5,3.3c1.7,1,4.2,2.1,7.6,3.3c5.7,2,9.7,4.2,11.8,6.6C704.4,310.2,705.4,313.3,705.4,317z M705.4,317"/>
<path class="st1" d="M553.5,18.7c-0.1-0.5-0.2-1.1-0.3-1.6c-0.1-0.5-0.3-1.1-0.5-1.6c-0.2-0.5-0.4-1-0.7-1.5c-0.3-0.5-0.5-1-0.9-1.4
	c-0.3-0.4-0.7-0.9-1-1.3c-0.4-0.4-0.8-0.8-1.2-1.2c-0.4-0.4-0.9-0.7-1.3-1c-0.5-0.3-0.9-0.6-1.4-0.8c-0.5-0.3-1-0.5-1.5-0.7
	c-0.5-0.2-1-0.3-1.6-0.5c-0.5-0.1-1.1-0.2-1.6-0.3c-0.5-0.1-1.1-0.1-1.6-0.1h-26.6c-0.7,0-1.4,0.1-2.1,0.2c-0.7,0.1-1.4,0.3-2,0.5
	c-0.7,0.2-1.3,0.5-1.9,0.8c-0.6,0.3-1.2,0.7-1.8,1.1c-0.6,0.4-1.1,0.8-1.6,1.3c-0.5,0.5-1,1-1.4,1.5c-0.4,0.5-0.8,1.1-1.2,1.7
	c-0.3,0.6-0.6,1.2-0.9,1.9c0,0-73.1,192.4-74.5,195.9c-12.9,34.4-13.1,36.5-12.5,39.1c0.6,2.5,2.1,5.4,3.9,7.4c1.7,2,3.7,3,11.3,3.4
	c7.6,0.4,20.9,0.2,28.6-0.7c7.7-1,9.9-2.7,21.5-32.8c9.2-23.7,74.1-202.8,74.1-202.8c0.2-0.5,0.4-1,0.5-1.6c0.1-0.5,0.2-1.1,0.3-1.6
	c0.1-0.5,0.1-1.1,0.1-1.6C553.6,19.8,553.6,19.3,553.5,18.7z"/>
<path class="st1" d="M382.4,157.6c0.6,0,1.1-0.1,1.5-0.4c0.5-0.3,0.8-0.7,1-1.2l15.1-37.1c0.1-0.2,0.1-0.4,0.2-0.6
	c0-0.2,0-0.4,0-0.6c0-0.2-0.1-0.4-0.1-0.6c-0.1-0.2-0.2-0.4-0.3-0.6c-0.1-0.2-0.2-0.3-0.4-0.5c-0.1-0.1-0.3-0.3-0.5-0.4
	c-0.2-0.1-0.4-0.2-0.6-0.2c-0.2-0.1-0.4-0.1-0.6-0.1l-4.9-0.1c-0.5,0-1,0.1-1.5,0.4c-0.5,0.3-0.8,0.6-1.1,1.1l-16,37.1
	c-0.1,0.2-0.1,0.4-0.2,0.6c0,0.2-0.1,0.4,0,0.6c0,0.2,0.1,0.4,0.1,0.6c0.1,0.2,0.1,0.4,0.3,0.6c0.1,0.2,0.2,0.3,0.4,0.5
	c0.2,0.1,0.3,0.3,0.5,0.4C375.7,157.1,382.4,157.6,382.4,157.6z"/>
</svg>
