<svg width="59" height="59" viewBox="0 0 59 59" fill="none" xmlns="http://www.w3.org/2000/svg">
<path d="M49.4124 21.1662C54.4274 22.0021 55.6074 25.6404 51.9936 29.2296L45.897 35.3262C44.8645 36.3587 44.2991 38.35 44.6186 39.7758L46.3641 47.3229C47.7407 53.2967 44.5695 55.6075 39.2841 52.4854L31.9336 48.1342C30.6061 47.3475 28.4182 47.3475 27.0661 48.1342L19.7157 52.4854C14.4549 55.6075 11.2591 53.2721 12.6357 47.3229L14.3811 39.7758C14.7007 38.35 14.1353 36.3587 13.1028 35.3262L7.00615 29.2296C3.41698 25.6404 4.5724 22.0021 9.5874 21.1662L17.4295 19.8633C18.7324 19.6421 20.3057 18.4867 20.8957 17.2821L25.2224 8.62874C27.5578 3.93332 31.3928 3.93332 33.7528 8.62874L38.0795 17.2821C38.3253 17.7983 38.7678 18.3146 39.2841 18.7325" stroke="#171717" stroke-width="3" stroke-linecap="round" stroke-linejoin="round"/>
</svg>
