<svg width="59" height="59" viewBox="0 0 59 59" fill="none" xmlns="http://www.w3.org/2000/svg">
<path d="M41.3984 30.5817L15.9055 28.4429C14.9125 28.3678 13.914 28.4677 12.9555 28.7379C11.0154 29.2447 9.29856 30.3817 8.07486 31.9703C6.85117 33.5588 6.18995 35.5089 6.1951 37.5142V37.8829C6.19358 39.1274 6.44815 40.3589 6.94297 41.5008C7.43778 42.6427 8.16227 43.6705 9.07135 44.5204C9.56812 44.9781 10.112 45.3819 10.6938 45.725C11.9346 46.4385 13.322 46.8589 14.7501 46.9542C15.1179 46.991 15.4885 46.991 15.8563 46.9542L41.2018 44.8646C43.0105 44.7342 44.7028 43.924 45.9387 42.597C47.1745 41.2699 47.8623 39.5243 47.8639 37.7109V37.5633C47.8687 35.7978 47.2044 34.0959 46.0047 32.8005C44.8051 31.505 43.1592 30.7122 41.3984 30.5817Z" stroke="black" stroke-width="3" stroke-linecap="round" stroke-linejoin="round"/>
<path d="M14.7499 17.2083L7.37493 17.3312C6.80761 17.3396 6.2461 17.2161 5.73468 16.9704C5.22325 16.7247 4.7759 16.3635 4.42789 15.9154C4.07988 15.4673 3.84073 14.9444 3.7293 14.3881C3.61786 13.8318 3.6372 13.2572 3.78577 12.7096C4.01193 11.8802 4.54242 11.1665 5.27144 10.7108C6.00047 10.2552 6.87445 10.0911 7.7191 10.2512L14.7499 12.7587C15.2167 12.8444 15.6441 13.0762 15.9705 13.4207C16.2968 13.7652 16.5051 14.2046 16.5654 14.6753C16.6256 15.146 16.5345 15.6237 16.3054 16.0392C16.0763 16.4548 15.7209 16.7867 15.2908 16.9871L14.8974 17.2083C14.8491 17.2208 14.7983 17.2208 14.7499 17.2083Z" stroke="black" stroke-width="3" stroke-linecap="round" stroke-linejoin="round"/>
<path d="M12.9555 28.7379L9.07129 17.2083" stroke="black" stroke-width="3" stroke-linecap="round" stroke-linejoin="round"/>
<path d="M32.4253 10.5463L41.3982 30.5817" stroke="black" stroke-width="3" stroke-linecap="round" stroke-linejoin="round"/>
<path d="M29.5 10.5462H38.5958C39.8737 10.541 41.0993 10.0384 42.0129 9.14499C42.9153 8.23528 43.4269 7.00921 43.4387 5.72791" stroke="black" stroke-width="3" stroke-linecap="round" stroke-linejoin="round"/>
<path d="M27.7545 29.5C27.8128 29.0394 28.0003 28.6047 28.2953 28.2463C29.5936 26.7192 31.1948 25.4782 32.9976 24.6021C34.8003 23.7259 36.7654 23.2336 38.7683 23.1562C40.7711 23.0789 42.7683 23.4182 44.6332 24.1528C46.4982 24.8873 48.1903 26.0011 49.6025 27.4235C51.0147 28.8459 52.1162 30.5461 52.8372 32.4163C53.5583 34.2865 53.8832 36.286 53.7913 38.2883C53.6995 40.2906 53.193 42.252 52.3038 44.0484C51.4146 45.8448 50.1622 47.437 48.6257 48.7242C47.177 49.9406 45.5078 50.867 43.7091 51.4529C42.262 51.9112 40.7528 52.1434 39.2349 52.1413C37.1464 52.1396 35.083 51.6861 33.1862 50.812C31.2894 49.9379 29.6042 48.6638 28.2462 47.0771C27.9482 46.7299 27.76 46.3021 27.7053 45.8479L41.2016 44.8154C43.0103 44.685 44.7026 43.8749 45.9385 42.5478C47.1743 41.2207 47.8621 39.4751 47.8637 37.6617V37.5142C47.8614 35.7449 47.1875 34.0425 45.9782 32.7511C44.7689 31.4596 43.1144 30.6755 41.3491 30.5571L27.7545 29.5Z" stroke="black" stroke-width="3" stroke-linecap="round" stroke-linejoin="round"/>
<path d="M12.9555 46.9296L8.45679 53.3458" stroke="black" stroke-width="3" stroke-linecap="round" stroke-linejoin="round"/>
<path d="M50.5432 46.8558L55.2878 53.3458" stroke="black" stroke-width="3" stroke-linecap="round" stroke-linejoin="round"/>
</svg>
